<svg xmlns="http://www.w3.org/2000/svg" xmlns:xlink="http://www.w3.org/1999/xlink" id="Ebene_1" x="0px" y="0px" viewBox="0 0 542.1 231.2" style="enable-background:new 0 0 542.1 231.2;" xml:space="preserve">
  <style type="text/css">
    .st0{fill:#FFFFFF;}
    .st1{clip-path:url(#SVGID_2_);}
    .st2{fill:#1D1D1B;}
    .st3{clip-path:url(#SVGID_4_);}
    .st4{fill:#E6007E;}
  </style>
  <g>
    <path class="st0" d="M436.8,89.6h-6.2v-8.7h6.2v-5.7c0-7.4,2.5-13.4,14.4-13.4c0.8,0,3.2,0,6.6,0.4v8.6c-1.2-0.2-1.6-0.3-2.6-0.3   c-6.3,0-6.3,3.3-6.3,5.5v4.9h7.8v8.7H449v33.2h-12.2V89.6z"></path>
    <path class="st0" d="M504.1,81.3c-0.1-1.6-0.2-3.7-1.7-6.1c-2.5-4-7.2-4.7-10-4.7c-14.6,0-17.5,13.6-17.5,22.8   c0,4.1,0.6,11.4,5,16.1c3,3.3,7,5.2,14.1,5.2c6.2,0,8.4-0.8,9.8-1.2v-12.6h-11.6v-10h24.5v30c-3.7,1.2-9.9,3.3-21.9,3.3   c-13.7,0-20.8-3.3-25.5-8c-6.7-6.6-8-16.1-8-22.4c0-21.2,13.3-32.6,31.5-32.6c7.7,0,15.7,2.2,20.4,7.6c4,4.6,4.2,9.3,4.3,12.5   H504.1z"></path>
  </g>
  <g>
    <defs>
      <polygon id="SVGID_1_" points="-43.3,263.6 615,263.6 610.5,-9.7 -47.7,-9.7   "></polygon>
    </defs>
    <clipPath id="SVGID_2_">
      <use xlink:href="#SVGID_1_" style="overflow:visible;"></use>
    </clipPath>
    <g class="st1">
      <path class="st0" d="M411.7,62.8v24H389v-24h-12.9v36.7c2.8,6.6,5.2,14.3,6.8,23.3h6V96.5h22.8v26.3h12.9v-60H411.7z"></path>
    </g>
  </g>
  <g>
    <path class="st0" d="M111.2,182.9c-1.3,0-5.4,0.4-5.4-1.7c0-3.9,10.9-18,10.9-34.1c0-6.3-6.1-8.7-12.4-8.7   c-12.8,0-33.3,2.3-33.3,18.3c0,11.1,9.2,23.1,9.2,25.2c0,0.8-0.8,1-2.7,1H57.4c-7.2,0-9.2-12.7-9.2-31c0-60.3,41.9-88.4,48.1-88.4   c4.7,0,41,20.2,41,85.5c0,37.6-6.1,33.8-10.3,33.8H111.2z M74.1,120.4c0,1.7,1,2.7,2.7,2.7c2.5,0,16.2-3.7,28.6-3.7   c4.9,0,7.2-0.7,7.2-4.6c0-8.7-10.4-27.1-15.8-27.1C89.2,87.7,74.1,110.1,74.1,120.4z"></path>
    <path class="st0" d="M187,82.6c-7,0-16.1,3.5-16.1,11.7c0,10.1,14,14.1,21.7,16.8c29.6,9.9,35.7,24.1,35.7,37.5   c0,16.3-11.7,36.5-41.4,36.5c-20,0-40.3-10.7-40.3-33.1c0-12,7.2-19,8.6-19c2.4,0,0,28.6,30.3,28.6c10.7,0,20-4.7,20-13.4   c0-10.3-12.7-14.5-20.9-17.1c-30.9-9.6-34.2-23.5-34.2-35.5c0-11.8,8-32,36.6-32c20.4,0,34.9,10.9,34.9,14.9   c0,3.9-7.3,16.8-11.3,16.8C207.1,95.3,201.7,82.6,187,82.6z"></path>
    <path class="st0" d="M272.4,75.1c0,3.8-4.2,12.4-4.2,14.1c0,2.5,0.7,4.2,2.8,4.2c1.8,0,3.5-0.7,5.4-0.7c5.4,0,5.5,3.8,5.5,8.6   c0,2,0,7.3-3,7.3c-1.1,0-3.9-1.3-6.5-1.3c-7.8,0-7.8,9-7.8,21.6c0,37.5,7.9,43.7,7.9,46.1c0,2.1-16.3,10-19.6,10   c-5.4,0-6.8-31.4-6.8-39.2c0-17.3,0.8-24.1,0.8-26.8c0-4.2,1.3-11.7-5.1-11.7c-2.5,0-3.9,1.7-5.5,1.7c-1.8,0-1.7-1.8-1.7-4.4   c0-10.7,3.1-12,8.5-12c0.6,0,1.5,0.6,2.7,0.6c4.4,0,4.8-6.9,5.5-11.8c0.7-5.4,16.5-9.3,19.3-9.3C271.7,72.2,272.4,72.5,272.4,75.1z   "></path>
    <path class="st0" d="M351.7,182.9c-1.3,0-5.4,0.4-5.4-1.7c0-3.9,10.9-18,10.9-34.1c0-6.3-6.1-8.7-12.4-8.7   c-12.8,0-33.3,2.3-33.3,18.3c0,11.1,9.2,23.1,9.2,25.2c0,0.8-0.8,1-2.7,1h-20.2c-7.2,0-9.2-12.7-9.2-31c0-60.3,41.9-88.4,48.1-88.4   c4.7,0,41,20.2,41,85.5c0,37.6-6.1,33.8-10.3,33.8H351.7z M314.7,120.4c0,1.7,1,2.7,2.7,2.7c2.5,0,16.2-3.7,28.6-3.7   c4.9,0,7.2-0.7,7.2-4.6c0-8.7-10.4-27.1-15.8-27.1C329.7,87.7,314.7,110.1,314.7,120.4z"></path>
  </g>
  </svg>