<?xml version="1.0" encoding="UTF-8" standalone="no"?>
<!-- Created with Inkscape (http://www.inkscape.org/) -->
<svg
   xmlns:svg="http://www.w3.org/2000/svg"
   xmlns="http://www.w3.org/2000/svg"
   version="1.0"
   width="602.36218"
   height="114.76772"
   id="svg1971">
  <defs
     id="defs1973" />
  <g
     id="layer1">
    <g
       transform="matrix(3.543307e-5,0,0,3.543307e-5,-1.808568e-4,-5.310284e-3)"
       style="fill-rule:evenodd"
       id="Layer_x0020_1">
  
  <path
  fill="#ffffff"
   d="M 16183200,506880 L 15364020,2180380 L 15688640,2180380 L 16500030,507400 L 16500030,506880 L 16183200,506880 L 16183200,506880 z M 14447430,506880 L 13628690,2180380 L 13880910,2180380 L 14692300,506880 L 14447430,506880 z M 11843630,506880 L 11024900,2180380 L 11277110,2180380 L 12089030,506880 L 11843630,506880 z M 10976130,506880 L 10157330,2180380 L 10409620,2180380 L 11221010,506880 L 10976130,506880 z M 13306150,1066060 L 12487160,2739300 L 12739640,2739300 L 13551220,1066060 L 13306150,1066060 z M 15041670,1066060 L 14222680,2739300 L 14474890,2739300 L 15286550,1066060 L 15041670,1066060 z M 12438130,1066060 L 11619400,2739300 L 11871620,2739300 L 12683270,1066060 L 12438130,1066060 z M 2011530,1074110 C 1907310,1074110 1821850,1031060 1814060,916700 L 1888930,916050 C 1892830,986840 1948280,1017750 2013800,1017750 C 2075620,1017750 2146670,990020 2146670,919040 C 2146670,883520 2126540,860340 2097180,844100 C 2064910,826440 2023870,815730 1988350,804950 C 1908860,780200 1829380,750200 1829380,653710 C 1829380,543310 1929060,500000 2025490,500000 C 2117380,500000 2207580,533900 2209010,641370 L 2135690,641370 C 2129520,576560 2083220,554740 2024580,554740 C 1966850,554740 1902700,581110 1902700,647540 C 1902700,679160 1922830,700010 1952180,716050 C 1983800,733000 2026860,744680 2061010,756110 C 2140500,782480 2220690,810210 2220690,910530 C 2220690,1027810 2113480,1074110 2011530,1074110 L 2011530,1074110 z M 2459140,1070210 C 2396610,1070210 2364080,1044760 2364080,979950 L 2364080,723840 L 2287770,723840 L 2287770,676890 L 2364080,676890 L 2364080,601040 L 2432130,572660 L 2432130,676890 L 2519150,676890 L 2519150,723840 L 2432130,723840 L 2432130,952940 C 2432130,996900 2436030,1017750 2485250,1017750 C 2497650,1017750 2508370,1014760 2521480,1013850 L 2521480,1065600 C 2499930,1068590 2479990,1070210 2459140,1070210 z M 2824740,869750 C 2764550,869750 2665780,876640 2665780,956120 C 2665780,1003980 2706820,1029430 2751430,1029430 C 2849480,1029430 2859610,950600 2859610,872030 C 2844030,871120 2837790,869750 2824740,869750 z M 2873320,1066320 C 2870330,1048010 2868770,1029430 2866430,1011580 C 2834160,1058790 2790850,1075020 2734480,1075020 C 2661880,1075020 2597980,1038590 2597980,959110 C 2597980,842740 2726040,828780 2820850,828780 C 2834870,828780 2847930,829690 2859610,829690 C 2859610,829690 2858640,814750 2858640,807220 C 2858640,746960 2837790,713060 2773900,713060 C 2726040,713060 2697400,730720 2692790,781760 L 2626620,781760 C 2630250,696830 2699020,669100 2772270,669100 C 2871950,669100 2920530,706890 2920530,808840 L 2920530,952220 C 2920530,1003070 2927410,1048660 2932860,1066320 L 2873320,1066320 z M 3252940,869750 C 3192870,869750 3094170,876640 3094170,956120 C 3094170,1003980 3134950,1029430 3179630,1029430 C 3277680,1029430 3287750,950600 3287750,872030 C 3272420,871120 3266190,869750 3252940,869750 z M 3301710,1066320 C 3298530,1048010 3296900,1029430 3294630,1011580 C 3262290,1058790 3219040,1075020 3162680,1075020 C 3090270,1075020 3026110,1038590 3026110,959110 C 3026110,842740 3154170,828780 3249040,828780 C 3263010,828780 3276320,829690 3287750,829690 C 3287750,829690 3287030,814750 3287030,807220 C 3287030,746960 3266190,713060 3202090,713060 C 3154170,713060 3125790,730720 3120990,781760 L 3054750,781760 C 3058650,696830 3127160,669100 3200470,669100 C 3300080,669100 3348660,706890 3348660,808840 L 3348660,952220 C 3348660,1003070 3355540,1048660 3361060,1066320 L 3301710,1066320 z M 3604120,1070210 C 3541590,1070210 3509250,1044760 3509250,979950 L 3509250,723840 L 3432750,723840 L 3432750,676890 L 3509250,676890 L 3509250,601040 L 3577110,572660 L 3577110,676890 L 3664380,676890 L 3664380,723840 L 3577110,723840 L 3577110,952940 C 3577110,996900 3581000,1017750 3630230,1017750 C 3642560,1017750 3653340,1014760 3666660,1013850 L 3666660,1065600 C 3645100,1068590 3624970,1070210 3604120,1070210 z M 3775490,508510 L 3843290,508510 L 3843290,1066320 L 3775490,1066320 L 3775490,508510 z M 3989910,676890 L 4057710,676890 L 4057710,1066510 L 3989910,1066510 L 3989910,676890 z M 3986020,508510 L 4061610,508510 L 4061610,577210 L 3986020,577210 L 3986020,508510 z M 4366490,1075020 C 4243690,1075020 4177260,993910 4177260,875920 C 4177260,756110 4243690,665850 4370190,665850 C 4458110,665850 4521620,710790 4529160,802410 L 4462920,802410 C 4459020,746960 4425840,713770 4370190,713770 C 4278560,713770 4249210,794170 4249210,872740 C 4249210,946700 4280830,1028530 4367200,1028530 C 4424220,1028530 4460650,991640 4464350,935280 L 4528440,935280 L 4530780,935990 C 4523900,1029430 4455190,1075020 4366490,1075020 z M 4910340,1066320 L 4910340,850270 C 4910340,782480 4902550,723120 4820080,723120 C 4741310,723120 4712860,789360 4712860,860340 L 4712860,1066320 L 4644870,1066320 L 4644870,508510 L 4712860,508510 L 4712860,737800 C 4743580,693840 4783910,671370 4838650,671370 C 4941250,671370 4978130,727740 4978130,824170 L 4978130,1066320 L 4910340,1066320 z M 5271390,716050 C 5199700,716050 5164180,774690 5158010,839490 L 5373990,839490 C 5374970,775590 5342430,716050 5271390,716050 z M 5156390,884430 L 5156390,891960 C 5156390,963650 5195090,1029430 5273660,1029430 C 5329380,1029430 5365550,995540 5373990,940540 L 5438860,940540 C 5423470,1032420 5357040,1075020 5268400,1075020 C 5147230,1075020 5088590,993910 5088590,878260 C 5088590,761630 5147230,669750 5273660,669750 C 5404250,669750 5441140,771050 5441140,884430 L 5156390,884430 z M 6185900,1066320 L 6185900,808840 L 5897260,808840 L 5897260,1066320 L 5824660,1066320 L 5824660,508510 L 5897260,508510 L 5897260,751570 L 6185900,751570 L 6185900,508510 L 6258310,508510 L 6258310,1066320 L 6185900,1066320 z M 6563910,716960 C 6476630,716960 6443640,793260 6443640,869750 C 6443640,945340 6475910,1028530 6563910,1028530 C 6650270,1028530 6684170,943780 6684170,869750 C 6684170,793260 6650920,716960 6563910,716960 z M 6563910,1075020 C 6439740,1075020 6371690,987740 6371690,869750 C 6371690,752480 6443640,668380 6564550,668380 C 6688070,668380 6755150,750850 6755150,869750 C 6755150,984560 6685080,1075020 6563910,1075020 z M 7034440,1075020 C 6911840,1075020 6845410,993910 6845410,875920 C 6845410,756110 6911840,665850 7038340,665850 C 7126260,665850 7189510,710790 7197300,802410 L 7130870,802410 C 7127240,746960 7093990,713770 7038340,713770 C 6946450,713770 6917360,794170 6917360,872740 C 6917360,946700 6948720,1028530 7035350,1028530 C 7092370,1028530 7128600,991640 7132500,935280 L 7196590,935280 L 7198930,935990 C 7191790,1029430 7123340,1075020 7034440,1075020 z M 7578490,1066320 L 7578490,850270 C 7578490,782480 7570700,723120 7488220,723120 C 7409460,723120 7381010,789360 7381010,860340 L 7381010,1066320 L 7313020,1066320 L 7313020,508510 L 7381010,508510 L 7381010,737800 C 7411730,693840 7452050,671370 7506800,671370 C 7609400,671370 7646280,727740 7646280,824170 L 7646280,1066320 L 7578490,1066320 z M 7901030,1075020 C 7818560,1075020 7748950,1042490 7748950,948330 L 7817000,948330 C 7819990,1002420 7850900,1027810 7904020,1027810 C 7945060,1027810 7992010,1007680 7992010,961380 C 7992010,935990 7977330,920600 7955770,909820 C 7932010,898200 7902660,891960 7876290,885790 C 7818560,871120 7759010,848000 7759010,778580 C 7759010,697470 7838500,667470 7907270,667470 C 7985130,667470 8046750,700010 8049930,785460 L 7982850,785460 C 7981230,740070 7951230,713770 7905640,713770 C 7870120,713770 7825440,730010 7825440,771700 C 7825440,795530 7840120,809490 7861680,820270 C 7886420,832670 7915710,837930 7941810,845010 C 8000450,860340 8059150,882810 8059150,953850 C 8059150,1042490 7977330,1075020 7901030,1075020 z M 8340920,1075020 C 8218120,1075020 8151690,993910 8151690,875920 C 8151690,756110 8218120,665850 8344810,665850 C 8432540,665850 8495990,710790 8503520,802410 L 8437350,802410 C 8433450,746960 8400210,713770 8344810,713770 C 8252930,713770 8223580,794170 8223580,872740 C 8223580,946700 8255200,1028530 8341570,1028530 C 8398650,1028530 8435080,991640 8438710,935280 L 8502870,935280 L 8505140,935990 C 8498260,1029430 8429560,1075020 8340920,1075020 L 8340920,1075020 z M 8884770,1066320 L 8884770,850270 C 8884770,782480 8876980,723120 8794510,723120 C 8715670,723120 8687290,789360 8687290,860340 L 8687290,1066320 L 8619240,1066320 L 8619240,508510 L 8687290,508510 L 8687290,737800 C 8718200,693840 8758270,671370 8813010,671370 C 8915680,671370 8952760,727740 8952760,824170 L 8952760,1066320 L 8884770,1066320 z M 9353230,1066320 L 9350050,1004690 C 9317710,1049370 9280630,1071120 9224260,1071120 C 9121600,1071120 9084520,1015470 9084520,919040 L 9084520,676890 L 9152570,676890 L 9152570,892870 C 9152570,960730 9160100,1019370 9242830,1019370 C 9324590,1019370 9350050,953850 9350050,882810 L 9350050,676890 L 9418040,676890 L 9418040,865860 C 9418040,932090 9417130,999170 9419400,1066320 L 9353230,1066320 z M 9567650,508510 L 9635450,508510 L 9635450,1066320 L 9567650,1066320 L 9567650,508510 z M 9935590,716050 C 9864090,716050 9828570,774690 9822140,839490 L 10038190,839490 C 10039100,775590 10006560,716050 9935590,716050 z M 9820780,884430 L 9820780,891960 C 9820780,963650 9859290,1029430 9937860,1029430 C 9993510,1029430 10029680,995540 10038190,940540 L 10103000,940540 C 10087670,1032420 10021430,1075020 9932600,1075020 C 9811360,1075020 9752720,993910 9752720,878260 C 9752720,761630 9811360,669750 9937860,669750 C 10068450,669750 10105330,771050 10105330,884430 L 9820780,884430 z M 709150,1668350 C 671350,1668350 645960,1677770 645960,1720110 L 645960,1791150 L 732980,1791150 L 732980,1838100 L 645960,1838100 L 645960,2180840 L 577910,2180840 L 577910,1838100 L 499980,1838100 L 499980,1791150 L 577910,1791150 L 577910,1754010 C 577910,1675430 588690,1618160 683040,1618160 C 701350,1618160 719930,1619070 739150,1620490 L 739150,1669980 C 728430,1669260 719280,1668350 709150,1668350 z M 1034030,1622050 L 1105720,1622050 L 1105720,1690110 L 1034030,1690110 L 1034030,1622050 L 1034030,1622050 z M 886680,1622050 L 958440,1622050 L 958440,1690110 L 886680,1690110 L 886680,1622050 z M 1095650,2180840 L 1092670,2119210 C 1060130,2163890 1023250,2185380 966880,2185380 C 864280,2185380 827140,2129730 827140,2033300 L 827140,1791150 L 895190,1791150 L 895190,2007200 C 895190,2074990 902720,2133630 985450,2133630 C 1067210,2133630 1092670,2068110 1092670,1997070 L 1092670,1791150 L 1160460,1791150 L 1160460,1980120 C 1160460,2046550 1159750,2113690 1162080,2180840 L 1095650,2180840 z M 1476840,1851410 C 1396640,1851410 1370270,1896740 1370270,1970960 L 1370270,2180840 L 1302480,2180840 L 1302480,1905240 C 1302480,1867450 1300920,1828940 1300210,1791150 L 1366640,1791150 L 1369620,1853680 C 1397350,1808100 1435150,1788880 1488520,1788880 C 1495410,1788880 1502230,1789530 1510020,1790440 L 1510020,1854330 C 1498330,1852780 1487620,1851410 1476840,1851410 z M 2088030,2187010 C 1912760,2187010 1820230,2067390 1820230,1899980 C 1820230,1741670 1908220,1611340 2077960,1611340 C 2179650,1611340 2265310,1658480 2274720,1768680 L 2199140,1768680 C 2188160,1700890 2141150,1669260 2074720,1669260 C 1946660,1669260 1898090,1784980 1898090,1896090 C 1898090,2017910 1953800,2129730 2090300,2129730 C 2130430,2129730 2170500,2124470 2209010,2112780 L 2209010,1946930 L 2075620,1946930 L 2075620,1892190 L 2279330,1892190 L 2279330,2156100 C 2216800,2173050 2152640,2187010 2088030,2187010 z M 2575510,1830570 C 2503820,1830570 2468300,1889200 2462130,1954010 L 2678180,1954010 C 2679090,1889850 2646550,1830570 2575510,1830570 z M 2460510,1998690 L 2460510,2006480 C 2460510,2078170 2499210,2143690 2577790,2143690 C 2633500,2143690 2669670,2109800 2678180,2055060 L 2742990,2055060 C 2727660,2146880 2661170,2189280 2572530,2189280 C 2451350,2189280 2392710,2108170 2392710,1992520 C 2392710,1875890 2451350,1784270 2577790,1784270 C 2708370,1784270 2745260,1885310 2745260,1998690 L 2460510,1998690 z M 2980790,2189280 C 2898060,2189280 2828640,2156750 2828640,2062850 L 2896690,2062850 C 2899680,2116680 2930590,2142070 2983770,2142070 C 3024750,2142070 3071700,2122140 3071700,2075900 C 3071700,2050440 3057020,2034860 3035530,2024140 C 3011440,2012650 2982150,2006480 2956050,2000310 C 2898060,1985640 2838770,1962260 2838770,1893100 C 2838770,1811990 2918250,1781990 2986960,1781990 C 3064820,1781990 3126440,1814270 3129690,1899980 L 3062540,1899980 C 3060920,1854330 3030720,1828030 2985330,1828030 C 2949810,1828030 2905200,1844270 2905200,1885960 C 2905200,1910050 2919810,1923750 2941370,1934530 C 2966110,1946930 2995460,1952390 3021570,1959270 C 3080210,1974860 3138840,1997070 3138840,2068110 C 3138840,2156750 3057020,2189280 2980790,2189280 z M 3379630,2184730 C 3317100,2184730 3284760,2159280 3284760,2094210 L 3284760,1838100 L 3208260,1838100 L 3208260,1791150 L 3284760,1791150 L 3284760,1715560 L 3352550,1686930 L 3352550,1791150 L 3439830,1791150 L 3439830,1838100 L 3352550,1838100 L 3352550,2067390 C 3352550,2111420 3356450,2132270 3405740,2132270 C 3418080,2132270 3428860,2129020 3442170,2128370 L 3442170,2180120 C 3420410,2183110 3400480,2184730 3379630,2184730 z M 3745230,1984010 C 3685230,1984010 3586460,1990900 3586460,2070380 C 3586460,2118240 3627240,2143690 3671920,2143690 C 3769970,2143690 3780040,2064930 3780040,1986290 C 3764710,1985640 3758540,1984010 3745230,1984010 z M 3794000,2180840 C 3790820,2162270 3789190,2143690 3786920,2125840 C 3754650,2173050 3711330,2189280 3654970,2189280 C 3582560,2189280 3518400,2153110 3518400,2073630 C 3518400,1957000 3646460,1943040 3741330,1943040 C 3755300,1943040 3768350,1943950 3780040,1943950 C 3780040,1943950 3779390,1929270 3779390,1921480 C 3779390,1861220 3758540,1827320 3694380,1827320 C 3646460,1827320 3618080,1845180 3613280,1896090 L 3547040,1896090 C 3550940,1811280 3619450,1783360 3692760,1783360 C 3792440,1783360 3841010,1821150 3841010,1923100 L 3841010,2066480 C 3841010,2117590 3847830,2162920 3853350,2180840 L 3794000,2180840 z M 3983680,1622960 L 4051540,1622960 L 4051540,2180840 L 3983680,2180840 L 3983680,1622960 z M 4323240,2184730 C 4260640,2184730 4228370,2159280 4228370,2094210 L 4228370,1838100 L 4151870,1838100 L 4151870,1791150 L 4228370,1791150 L 4228370,1715560 L 4296160,1686930 L 4296160,1791150 L 4383440,1791150 L 4383440,1838100 L 4296160,1838100 L 4296160,2067390 C 4296160,2111420 4300060,2132270 4349340,2132270 C 4361680,2132270 4372720,2129020 4385770,2128370 L 4385770,2180120 C 4364210,2183110 4344080,2184730 4323240,2184730 z M 4759160,2180840 L 4755920,2119210 C 4723640,2163890 4686560,2185380 4630200,2185380 C 4527790,2185380 4490650,2129730 4490650,2033300 L 4490650,1791150 L 4558510,1791150 L 4558510,2007200 C 4558510,2074990 4566230,2133630 4648710,2133630 C 4730530,2133630 4755920,2068110 4755920,1997070 L 4755920,1791150 L 4823970,1791150 L 4823970,1980120 C 4823970,2046550 4823320,2113690 4825590,2180840 L 4759160,2180840 z M 5235870,2180840 L 5235870,1964790 C 5235870,1896740 5228340,1838100 5145610,1838100 C 5061580,1838100 5038390,1914600 5038390,1986290 L 5038390,2180840 L 4970600,2180840 L 4970600,1891480 C 4970600,1858230 4968980,1813620 4968330,1791150 L 5035410,1791150 L 5037750,1853680 C 5069310,1808750 5108720,1786540 5165090,1786540 C 5266780,1786540 5303920,1842900 5303920,1938430 L 5303920,2180840 L 5235870,2180840 z M 5608610,1831220 C 5522890,1831220 5493610,1910050 5493610,1983360 C 5493610,2055700 5524520,2131360 5607900,2131360 C 5694260,2131360 5722250,2051160 5722250,1977130 C 5722250,1908430 5687380,1831220 5608610,1831220 z M 5789140,1926280 L 5789140,2070380 C 5789140,2220190 5782250,2335910 5605620,2335910 C 5526790,2335910 5444320,2311820 5444320,2217010 L 5510810,2217010 C 5509840,2272660 5557050,2289610 5604910,2289610 C 5686730,2289610 5713550,2244020 5719720,2172330 C 5721340,2151490 5721340,2129730 5721340,2108170 C 5691280,2154470 5648030,2176940 5592570,2176940 C 5475940,2176940 5421200,2088240 5421200,1981030 C 5421200,1877520 5478280,1784270 5591660,1784270 C 5649590,1784270 5694260,1807380 5723610,1857580 L 5723610,1791150 L 5792320,1791150 C 5786800,1835830 5789140,1881410 5789140,1926280 z M 6510720,2180840 L 6252080,1877520 L 6486690,1622960 L 6579230,1622960 L 6334810,1872910 L 6605600,2180840 L 6510720,2180840 z M 6178110,1622960 L 6250520,1622960 L 6250520,2180840 L 6178110,2180840 L 6178110,1622960 z M 6885740,1984010 C 6825470,1984010 6726770,1990900 6726770,2070380 C 6726770,2118240 6767550,2143690 6812230,2143690 C 6910280,2143690 6920350,2064930 6920350,1986290 C 6905020,1985640 6898790,1984010 6885740,1984010 z M 6934310,2180840 C 6931130,2162270 6929500,2143690 6927230,2125840 C 6894890,2173050 6851640,2189280 6795280,2189280 C 6722870,2189280 6658710,2153110 6658710,2073630 C 6658710,1957000 6786770,1943040 6881840,1943040 C 6895610,1943040 6908920,1943950 6920350,1943950 C 6920350,1943950 6919630,1929270 6919630,1921480 C 6919630,1861220 6898790,1827320 6834690,1827320 C 6786770,1827320 6758390,1845180 6753780,1896090 L 6687350,1896090 C 6691250,1811280 6759950,1783360 6833070,1783360 C 6932680,1783360 6981260,1821150 6981260,1923100 L 6981260,2066480 C 6981260,2117590 6988140,2162920 6993660,2180840 L 6934310,2180840 z M 7291460,1851410 C 7211270,1851410 7184970,1896740 7184970,1970960 L 7184970,2180840 L 7117110,2180840 L 7117110,1905240 C 7117110,1867450 7115550,1828940 7114830,1791150 L 7181070,1791150 L 7184250,1853680 C 7211980,1808100 7249770,1788880 7303150,1788880 C 7310040,1788880 7316920,1789530 7324650,1790440 L 7324650,1854330 C 7313020,1852780 7302240,1851410 7291460,1851410 z M 7424130,1622960 L 7491930,1622960 L 7491930,2180840 L 7424130,2180840 L 7424130,1622960 z M 7757390,2189280 C 7674920,2189280 7605570,2156750 7605570,2062850 L 7673360,2062850 C 7676540,2116680 7707260,2142070 7760640,2142070 C 7801420,2142070 7848560,2122140 7848560,2075900 C 7848560,2050440 7833950,2034860 7812390,2024140 C 7788370,2012650 7759010,2006480 7732910,2000310 C 7674920,1985640 7615630,1962260 7615630,1893100 C 7615630,1811990 7695120,1781990 7763620,1781990 C 7841740,1781990 7903370,1814270 7906290,1899980 L 7839210,1899980 C 7837850,1854330 7807590,1828030 7762260,1828030 C 7726740,1828030 7681800,1844270 7681800,1885960 C 7681800,1910050 7696480,1923750 7718230,1934530 C 7742780,1946930 7772070,1952390 7798430,1959270 C 7857070,1974860 7915710,1997070 7915710,2068110 C 7915710,2156750 7833950,2189280 7757390,2189280 z M 8211240,1851410 C 8130850,1851410 8104740,1896740 8104740,1970960 L 8104740,2180840 L 8036880,2180840 L 8036880,1905240 C 8036880,1867450 8035320,1828940 8034410,1791150 L 8100840,1791150 L 8104030,1853680 C 8131750,1808100 8169550,1788880 8222670,1788880 C 8229550,1788880 8236690,1789530 8244420,1790440 L 8244420,1854330 C 8232800,1852780 8222020,1851410 8211240,1851410 z M 8607810,2180840 L 8604820,2119210 C 8572290,2163890 8535150,2185380 8479040,2185380 C 8376370,2185380 8339290,2129730 8339290,2033300 L 8339290,1791150 L 8407090,1791150 L 8407090,2007200 C 8407090,2074990 8414880,2133630 8497350,2133630 C 8579170,2133630 8604820,2068110 8604820,1997070 L 8604820,1791150 L 8672620,1791150 L 8672620,1980120 C 8672620,2046550 8671900,2113690 8674240,2180840 L 8607810,2180840 z M 9084520,2180840 L 9084520,1964790 C 9084520,1896740 9076920,1837380 8994450,1837380 C 8915680,1837380 8887040,1903820 8887040,1974860 L 8887040,2180840 L 8819250,2180840 L 8819250,1622960 L 8887040,1622960 L 8887040,1852060 C 8917950,1808100 8958080,1785630 9012830,1785630 C 9115430,1785630 9152570,1842000 9152570,1938430 L 9152570,2180840 L 9084520,2180840 z M 9445760,1830570 C 9373810,1830570 9338360,1889200 9332120,1954010 L 9548430,1954010 C 9549080,1889850 9516810,1830570 9445760,1830570 z M 9330760,1998690 L 9330760,2006480 C 9330760,2078170 9369270,2143690 9448040,2143690 C 9503490,2143690 9539920,2109800 9548430,2055060 L 9613240,2055060 C 9597650,2146880 9531220,2189280 9442580,2189280 C 9321600,2189280 9262710,2108170 9262710,1992520 C 9262710,1875890 9321600,1784270 9448040,1784270 C 9578430,1784270 9615510,1885310 9615510,1998690 L 9330760,1998690 z "
   id="path1966" />

 </g>
  </g>
</svg>
