<?xml version="1.0" encoding="UTF-8" standalone="no"?>
<!-- Created with Inkscape (http://www.inkscape.org/) -->

<svg
   xmlns:dc="http://purl.org/dc/elements/1.1/"
   xmlns:cc="http://creativecommons.org/ns#"
   xmlns:rdf="http://www.w3.org/1999/02/22-rdf-syntax-ns#"
   xmlns:svg="http://www.w3.org/2000/svg"
   xmlns="http://www.w3.org/2000/svg"
   xmlns:sodipodi="http://sodipodi.sourceforge.net/DTD/sodipodi-0.dtd"
   xmlns:inkscape="http://www.inkscape.org/namespaces/inkscape"
   width="329.49146"
   height="24.4825"
   id="svg3252"
   version="1.1"
   inkscape:version="0.47 r22583"
   sodipodi:docname="New document 3">
  <defs
     id="defs3254">
    <inkscape:perspective
       sodipodi:type="inkscape:persp3d"
       inkscape:vp_x="0 : 526.18109 : 1"
       inkscape:vp_y="0 : 1000 : 0"
       inkscape:vp_z="744.09448 : 526.18109 : 1"
       inkscape:persp3d-origin="372.04724 : 350.78739 : 1"
       id="perspective3260" />
    <inkscape:perspective
       id="perspective3188"
       inkscape:persp3d-origin="0.5 : 0.33333333 : 1"
       inkscape:vp_z="1 : 0.5 : 1"
       inkscape:vp_y="0 : 1000 : 0"
       inkscape:vp_x="0 : 0.5 : 1"
       sodipodi:type="inkscape:persp3d" />
    <clipPath
       clipPathUnits="userSpaceOnUse"
       id="clipPath34">
      <path
         d="m 28.346,28.346 635.528,0 0,1020.472 -635.528,0 0,-1020.472 z"
         id="path36" />
    </clipPath>
  </defs>
  <sodipodi:namedview
     id="base"
     pagecolor="#ffffff"
     bordercolor="#666666"
     borderopacity="1.0"
     inkscape:pageopacity="0.0"
     inkscape:pageshadow="2"
     inkscape:zoom="2.8"
     inkscape:cx="164.55601"
     inkscape:cy="48.784261"
     inkscape:document-units="px"
     inkscape:current-layer="g32"
     showgrid="false"
     inkscape:window-width="1024"
     inkscape:window-height="712"
     inkscape:window-x="-4"
     inkscape:window-y="-4"
     inkscape:window-maximized="1" />
  <metadata
     id="metadata3257">
    <rdf:RDF>
      <cc:Work
         rdf:about="">
        <dc:format>image/svg+xml</dc:format>
        <dc:type
           rdf:resource="http://purl.org/dc/dcmitype/StillImage" />
        <dc:title></dc:title>
      </cc:Work>
    </rdf:RDF>
  </metadata>
  <g
     inkscape:label="Layer 1"
     inkscape:groupmode="layer"
     id="layer1"
     transform="translate(-189.19098,-997.83905)">
    <g
       id="g30"
       transform="matrix(1.25,0,0,-1.25,-55.491869,1077.9338)"
       style="fill:#ffffff">
      <g
         id="g32"
         clip-path="url(#clipPath34)"
         style="fill:#ffffff">
        <g
           id="g38"
           transform="matrix(1.000885,0,0,-1,0,538.5827)"
           style="fill:#ffffff" />
        <g
           id="g50"
           transform="matrix(1.000885,0,0,-1,0,538.5827)"
           style="fill:#ffffff" />
        <g
           id="g56"
           transform="matrix(1.000885,0,0,-1,0,538.5827)"
           style="fill:#ffffff">
          <g
             id="g58"
             transform="translate(174.7402,475.3499)"
             style="fill:#ffffff">
            <path
               d="m 105.288,16.826 3.531,0 0,-17.622 -3.531,0 0,17.622 z m 31.43,0 3.523,0 0,-17.622 -3.523,0 0,17.622 z"
               style="fill:#ffffff;fill-opacity:1;fill-rule:nonzero;stroke:none"
               id="path60"
               sodipodi:nodetypes="cccccccccc" />
          </g>
        </g>
        <g
           id="g62"
           transform="matrix(1.000885,0,0,-1,0,538.5827)"
           style="fill:#ffffff">
          <path
             d="m 302.988,492.176 3.529,0 0,-17.622 -3.529,0 0,17.622 z m 16.938,0 3.521,0 0,-17.622 -3.521,0 0,17.622 z m -82.56,0 3.646,0 13.559,-17.622 -3.644,0 -13.561,17.622 z"
             style="fill:#ffffff;fill-opacity:1;fill-rule:nonzero;stroke:none"
             id="path64" />
        </g>
        <g
           id="g66"
           transform="matrix(1.000885,0,0,-1,0,538.5827)"
           style="fill:#ffffff">
          <g
             id="g68"
             transform="translate(226.9193,492.1759)"
             style="fill:#ffffff">
            <path
               d="m 0,0 3.639,0 13.565,-17.622 -3.641,0 L 0,0 z"
               style="fill:#ffffff;fill-opacity:1;fill-rule:nonzero;stroke:none"
               id="path70" />
          </g>
        </g>
        <g
           id="g72"
           transform="matrix(1.000885,0,0,-1,0,538.5827)"
           style="fill:#ffffff">
          <g
             id="g74"
             transform="translate(216.4702,492.1759)"
             style="fill:#ffffff">
            <path
               d="m 0,0 3.643,0 13.563,-17.622 -3.646,0 L 0,0 z"
               style="fill:#ffffff;fill-opacity:1;fill-rule:nonzero;stroke:none"
               id="path76" />
          </g>
        </g>
        <g
           id="g78"
           transform="matrix(1.000885,0,0,-1,0,538.5827)"
           style="fill:#ffffff">
          <g
             id="g80"
             transform="translate(206.0242,492.1759)"
             style="fill:#ffffff">
            <path
               d="m 0,0 3.642,0 13.564,-17.622 -3.648,0 L 0,0 z"
               style="fill:#ffffff;fill-opacity:1;fill-rule:nonzero;stroke:none"
               id="path82" />
          </g>
        </g>
        <g
           id="g84"
           transform="matrix(1.000885,0,0,-1,0,538.5827)"
           style="fill:#ffffff">
          <g
             id="g86"
             transform="translate(195.5732,492.1759)"
             style="fill:#ffffff">
            <path
               d="m 0,0 3.644,0 13.559,-17.622 -3.648,0 L 0,0 z m 61.264,0 4.055,0 13.561,-17.622 -4.057,0 L 61.264,0 z m 40.472,-17.622 -4.055,0 -4.755,6.178 -2.026,2.635 2.026,2.635 4.755,6.18 4.055,0 -6.781,-8.815 6.781,-8.813 z"
               style="fill:#ffffff;fill-opacity:1;fill-rule:nonzero;stroke:none"
               id="path88" />
          </g>
        </g>
        <g
           id="g90"
           transform="matrix(1.000885,0,0,-1,0,538.5827)"
           style="fill:#ffffff">
          <g
             id="g92"
             transform="translate(274.3873,489.2429)"
             style="fill:#ffffff">
            <path
               d="M 0,0 -8.275,0 -10.534,2.947 0,2.947 0,0 z m -16.495,-14.728 -0.02,2.672 7.678,0 2.114,-2.672 -9.772,0 z m 183.833,17.667 3.651,0 13.557,-17.628 -3.649,0 -13.559,17.628 z"
               style="fill:#ffffff;fill-opacity:1;fill-rule:nonzero;stroke:none"
               id="path94" />
          </g>
        </g>
        <g
           id="g96"
           transform="matrix(1.000885,0,0,-1,0,538.5827)"
           style="fill:#ffffff">
          <g
             id="g98"
             transform="translate(330.9153,481.7069)"
             style="fill:#ffffff">
            <path
               d="m 0,0 0,-1.114 2.838,-5.033 -2.681,0 0,-0.992 4.054,0 0,1.099 -2.825,5.056 2.872,0 L 4.258,0 0,0 z M 7.177,-3.707 C 7.13,-4.043 7.005,-4.295 6.635,-4.295 c -0.387,0 -0.536,0.258 -0.598,0.654 -0.028,0.196 -0.038,0.38 -0.038,0.61 l 1.215,0 c 0,-0.224 0.009,-0.447 -0.037,-0.676 m -1.178,1.362 0,0.445 c 0,0.843 0.15,1.218 0.62,1.218 0.511,0 0.604,-0.499 0.604,-0.961 l 1.139,0 C 8.31,-0.417 7.796,0.118 6.619,0.118 c -1.704,0 -1.811,-1.163 -1.811,-2.551 0,-1.364 0.207,-2.657 1.87,-2.657 1.71,0 1.71,1.302 1.71,2.745 l -2.389,0 z M 11.662,0 l 0,-3.336 c 0,-0.489 -0.009,-0.959 -0.544,-0.959 -0.459,0 -0.674,0.528 -0.674,1.048 l 0,3.247 -1.204,0 0,-4.161 c 0,-0.275 0,-0.549 -0.039,-0.81 l 1.206,0 0.015,0.553 c 0.256,-0.391 0.614,-0.672 1.203,-0.672 0.971,0 1.242,0.524 1.242,1.517 l 0,3.573 -1.205,0 z m 3.813,0.059 c -1.042,0 -1.359,-0.305 -1.359,-1.358 l 0,-2.875 -0.657,0 0,-0.797 0.657,0 0,-0.848 1.195,-0.507 0,1.355 0.766,0 0,0.797 -0.766,0 0,2.691 c 0,0.464 0.065,0.683 0.508,0.683 0.107,0 0.213,-0.011 0.327,-0.032 l 0,0.84 c -0.22,0.039 -0.449,0.051 -0.671,0.051 m 3.513,-4.046 c -0.785,0 -1.036,0.461 -1.036,1.205 l 0,2.782 -1.191,0 0,-4.07 c 0,-0.067 -0.023,-0.845 -0.023,-0.901 l 1.152,0 0.011,0.638 c 0.265,-0.539 0.651,-0.725 1.233,-0.725 l 0.061,0 0,1.093 c -0.07,-0.003 -0.139,-0.022 -0.207,-0.022 M 22.235,0 22.231,-0.53 c -0.271,0.429 -0.673,0.633 -1.168,0.633 -0.896,0 -1.268,-0.468 -1.268,-1.402 l 0,-3.672 1.193,0 0,3.328 c 0,0.422 0.008,0.955 0.57,0.955 0.52,0 0.657,-0.627 0.657,-1.059 l 0,-3.224 1.199,0 0,4.16 c 0,0.306 0.022,0.529 0.036,0.811 l -1.215,0 z m 6.914,0 0,-3.415 c 0,-0.516 -0.088,-0.871 -0.516,-0.871 -0.522,0 -0.615,0.684 -0.615,1.121 l 0,3.165 -1.206,0 0,-3.445 c 0,-0.394 -0.037,-0.841 -0.496,-0.841 -0.535,0 -0.628,0.637 -0.628,1.121 l 0,3.165 -1.201,0 0,-4.295 c 0,-0.228 -0.014,-0.452 -0.042,-0.676 l 1.19,0 0.011,0.56 c 0.255,-0.417 0.684,-0.679 1.177,-0.679 0.613,0 0.888,0.281 1.083,0.683 0.324,-0.421 0.679,-0.683 1.211,-0.683 0.941,0 1.231,0.598 1.231,1.654 l 0,3.436 -1.199,0 z m 6.552,-6.348 c -0.55,0 -0.653,0.187 -0.653,0.747 l 0,0.63 0.738,0 0,0.797 -0.738,0 0,4.174 -1.199,0 0,-4.174 -0.595,0 0,-0.797 0.595,0 0,-0.779 c 0,-0.881 0.233,-1.45 1.314,-1.45 0.253,0 0.394,0.008 0.648,0.03 l 0,0.834 c -0.076,-0.012 -0.04,-0.012 -0.11,-0.012 m 2.773,-0.692 0.983,0 0,1.073 -0.983,0 0,-1.073 z m -1.647,0 0.987,0 0,1.073 -0.987,0 0,-1.073 z M 38.805,0 38.789,-0.53 c -0.265,0.429 -0.663,0.633 -1.157,0.633 -0.891,0 -1.269,-0.467 -1.269,-1.402 l 0,-3.672 1.193,0 0,3.328 c 0,0.422 0.007,0.955 0.57,0.955 0.517,0 0.654,-0.627 0.654,-1.059 l 0,-3.224 1.202,0 0,4.16 c 0,0.306 0.019,0.529 0.044,0.811 l -1.221,0 z m 4.469,-3.987 c -0.781,0 -1.029,0.461 -1.029,1.205 l 0,2.782 -1.201,0 0,-4.07 c 0,-0.067 -0.015,-0.845 -0.015,-0.901 l 1.147,0 0.011,0.638 c 0.265,-0.539 0.658,-0.725 1.238,-0.725 l 0.058,0 0,1.093 C 43.415,-3.968 43.346,-3.987 43.274,-3.987 M 49.639,0 l -1.783,-3.875 1.701,-3.264 1.458,0 -1.874,3.185 1.97,3.954 -1.472,0 z m -3.125,-7.139 1.302,0 0,7.139 -1.302,0 0,-7.139 z M 54.061,0 54.05,-0.53 c -0.274,0.429 -0.674,0.633 -1.163,0.633 -0.891,0 -1.262,-0.468 -1.262,-1.402 l 0,-3.672 1.193,0 0,3.328 c 0,0.422 0.009,0.955 0.558,0.955 0.521,0 0.66,-0.627 0.66,-1.059 l 0,-3.224 1.199,0 0,4.16 c 0,0.306 0.021,0.529 0.038,0.811 l -1.212,0 z m 4.675,0 0,-3.336 c 0,-0.489 -0.007,-0.959 -0.551,-0.959 -0.452,0 -0.677,0.528 -0.677,1.048 l 0,3.247 -1.201,0 0,-4.161 c 0,-0.275 0,-0.549 -0.033,-0.81 l 1.213,0 0.007,0.553 c 0.26,-0.391 0.615,-0.672 1.197,-0.672 0.977,0 1.241,0.524 1.241,1.517 l 0,3.573 -1.196,0 z m 3.67,0.094 c -0.932,0 -1.654,-0.376 -1.676,-1.415 0,-0.023 -0.01,-0.162 0,-0.266 l 1.182,0 0,0.154 c 0.02,0.388 0.093,0.745 0.556,0.745 0.355,0 0.536,-0.225 0.536,-0.58 0,-0.487 -0.268,-0.579 -0.978,-0.961 -0.869,-0.453 -1.243,-0.663 -1.243,-1.45 0,-1.006 0.791,-1.411 1.716,-1.411 1.174,0 1.648,0.474 1.648,1.539 l -1.178,0 c 0,-0.09 0.008,-0.17 0,-0.252 -0.034,-0.318 -0.127,-0.58 -0.507,-0.58 -0.315,0 -0.491,0.228 -0.491,0.524 0,0.444 0.355,0.562 1.033,0.928 0.724,0.389 1.186,0.626 1.186,1.492 0,1.112 -0.8,1.533 -1.784,1.533 m 4.093,-0.035 c -1.022,0 -1.346,-0.305 -1.346,-1.358 l 0,-2.875 -0.648,0 0,-0.797 0.648,0 0,-0.848 1.196,-0.507 0,1.355 0.76,0 0,0.797 -0.76,0 0,2.691 c 0,0.464 0.059,0.683 0.508,0.683 0.098,0 0.205,-0.011 0.324,-0.032 l 0,0.84 C 66.955,0.047 66.738,0.059 66.499,0.059 M 72.523,0 72.516,-0.53 c -0.269,0.429 -0.669,0.633 -1.164,0.633 -0.891,0 -1.27,-0.468 -1.27,-1.402 l 0,-3.672 1.201,0 0,3.328 c 0,0.422 0.019,0.955 0.564,0.955 0.525,0 0.654,-0.627 0.654,-1.059 l 0,-3.224 1.201,0 0,4.16 c 0,0.306 0.021,0.529 0.039,0.811 l -1.218,0 z m 4.678,0 0,-3.336 c 0,-0.489 -0.003,-0.959 -0.546,-0.959 -0.46,0 -0.678,0.528 -0.678,1.048 l 0,3.247 -1.205,0 0,-4.161 c 0,-0.275 0,-0.549 -0.032,-0.81 l 1.212,0 0.006,0.553 c 0.26,-0.391 0.616,-0.672 1.199,-0.672 0.974,0 1.246,0.524 1.246,1.517 l 0,3.573 -1.202,0 z m 3.92,-4.306 c -0.564,0 -0.631,0.811 -0.631,1.897 0,0.718 0.067,1.727 0.645,1.727 0.603,0 0.64,-0.925 0.64,-1.744 0,-0.891 -0.037,-1.88 -0.654,-1.88 M 81.848,0 81.841,-0.53 c -0.275,0.437 -0.654,0.633 -1.145,0.633 -1.28,0 -1.406,-1.262 -1.406,-2.545 0,-1.464 0.126,-2.648 1.337,-2.648 0.494,0 0.849,0.169 1.145,0.58 l 0,-2.629 1.201,0 0,6.233 c 0,0.056 0.025,0.853 0.025,0.906 l -1.15,0 z m -76.503,10.46 0,-6.255 -1.439,6.255 -1.355,0 -1.437,-6.255 0,6.255 -1.153,0 0,-7.135 2.117,0 1.215,5.714 1.186,-5.714 2.118,0 0,7.135 -1.252,0 z"
               style="fill:#ffffff;fill-opacity:1;fill-rule:nonzero;stroke:none"
               id="path100" />
          </g>
        </g>
        <g
           id="g102"
           transform="matrix(1.000885,0,0,-1,0,538.5827)"
           style="fill:#ffffff">
          <g
             id="g104"
             transform="translate(340.9263,488.4599)"
             style="fill:#ffffff">
            <path
               d="m 0,0 c -0.051,-0.344 -0.173,-0.584 -0.542,-0.584 -0.383,0 -0.539,0.251 -0.604,0.645 -0.027,0.201 -0.034,0.378 -0.034,0.615 l 1.202,0 C 0.022,0.452 0.034,0.231 0,0 m -1.18,1.358 0,0.439 c 0,0.854 0.158,1.226 0.621,1.226 0.508,0 0.593,-0.503 0.593,-0.961 l 1.147,0 c -0.05,1.227 -0.561,1.766 -1.74,1.766 -1.707,0 -1.811,-1.168 -1.811,-2.56 0,-1.365 0.202,-2.654 1.875,-2.654 1.707,0 1.707,1.296 1.707,2.744 l -2.392,0 z m 4.896,-1.953 c -0.573,0 -0.631,0.807 -0.631,1.884 0,0.731 0.058,1.734 0.637,1.734 0.611,0 0.648,-0.93 0.648,-1.746 0,-0.891 -0.037,-1.872 -0.654,-1.872 M 4.439,3.707 4.426,3.171 C 4.158,3.604 3.782,3.803 3.288,3.803 c -1.274,0 -1.41,-1.25 -1.41,-2.542 0,-1.463 0.136,-2.647 1.343,-2.647 0.495,0 0.853,0.165 1.14,0.582 l 0,-2.624 1.196,0 0,6.224 c 0,0.06 0.034,0.851 0.034,0.911 l -1.152,0 z m 2.186,-4.969 1.198,0 0,4.968 -1.198,0 0,-4.968 z m 0,-2.09 1.198,0 0,1.059 -1.198,0 0,-1.059 z M 11.073,0 c -0.043,-0.344 -0.171,-0.584 -0.539,-0.584 -0.389,0 -0.548,0.251 -0.601,0.645 C 9.908,0.262 9.891,0.439 9.891,0.676 l 1.216,0 c 0,-0.224 0.01,-0.445 -0.034,-0.676 m -1.182,1.358 0,0.439 c 0,0.854 0.154,1.226 0.623,1.226 0.516,0 0.603,-0.503 0.603,-0.961 l 1.134,0 c -0.038,1.227 -0.555,1.766 -1.737,1.766 -1.697,0 -1.817,-1.168 -1.817,-2.56 0,-1.365 0.216,-2.654 1.884,-2.654 1.707,0 1.707,1.296 1.707,2.744 l -2.397,0 z m 5.675,2.349 0,-3.338 c 0,-0.49 -0.01,-0.953 -0.559,-0.953 -0.447,0 -0.672,0.522 -0.672,1.042 l 0,3.249 -1.195,0 0,-4.165 c 0,-0.277 0,-0.543 -0.045,-0.804 l 1.207,0 0.014,0.546 c 0.265,-0.39 0.623,-0.67 1.193,-0.67 0.986,0 1.255,0.526 1.255,1.52 l 0,3.573 -1.198,0 z m 3.799,0.059 c -1.034,0 -1.352,-0.305 -1.352,-1.362 l 0,-2.873 -0.648,0 0,-0.793 0.648,0 0,-0.853 1.196,-0.508 0,1.361 0.768,0 0,0.793 -0.768,0 0,2.69 c 0,0.461 0.055,0.683 0.503,0.683 0.105,0 0.211,-0.014 0.332,-0.032 l 0,0.844 c -0.227,0.037 -0.448,0.05 -0.679,0.05 M 22.85,0 c -0.053,-0.344 -0.172,-0.584 -0.54,-0.584 -0.388,0 -0.544,0.251 -0.609,0.645 -0.025,0.201 -0.033,0.378 -0.033,0.615 l 1.204,0 C 22.872,0.452 22.894,0.231 22.85,0 m -1.182,1.358 0,0.439 c 0,0.854 0.155,1.226 0.619,1.226 0.51,0 0.607,-0.503 0.607,-0.961 l 1.132,0 c -0.042,1.227 -0.557,1.766 -1.739,1.766 -1.704,0 -1.812,-1.168 -1.812,-2.56 0,-1.365 0.205,-2.654 1.88,-2.654 1.701,0 1.701,1.296 1.701,2.744 l -2.388,0 z m 4.92,2.47 c -1.626,0 -1.859,-0.956 -1.859,-2.394 0,-1.548 0.171,-2.82 1.897,-2.82 1.283,0 1.735,0.498 1.735,1.808 l -1.143,0 c 0,-0.456 -0.019,-1.006 -0.592,-1.006 -0.773,0 -0.706,0.998 -0.706,1.765 0,0.881 -0.067,1.842 0.668,1.842 0.601,0 0.664,-0.592 0.664,-1.076 l 1.14,0 c -0.013,0.825 -0.137,1.881 -1.804,1.881 m 4.944,-0.121 0,-3.321 c 0,-0.559 -0.036,-0.97 -0.555,-0.97 -0.486,0 -0.67,0.584 -0.67,1.089 l 0,3.202 -1.196,0 0,-7.135 1.196,0 0,2.677 c 0.287,-0.408 0.676,-0.635 1.2,-0.635 0.928,0 1.233,0.526 1.233,1.52 l 0,3.573 -1.208,0 z m 4.69,0 0,-3.338 c 0,-0.49 -0.009,-0.953 -0.551,-0.953 -0.448,0 -0.676,0.522 -0.676,1.042 l 0,3.249 -1.191,0 0,-4.165 c 0,-0.277 0,-0.543 -0.048,-0.804 l 1.211,0 0.003,0.546 c 0.274,-0.39 0.623,-0.67 1.206,-0.67 0.984,0 1.249,0.526 1.249,1.52 l 0,3.573 -1.203,0 z m 4.601,-2.986 c 0,-0.643 0,-1.305 -0.631,-1.305 -0.68,0 -0.68,0.835 -0.68,1.328 l 0,0.988 c 0,0.501 -0.032,1.291 0.671,1.291 0.652,0 0.64,-0.731 0.64,-1.232 l 0,-1.07 z m -0.64,3.107 c -1.749,0 -1.88,-1.078 -1.88,-2.598 0,-1.392 0.212,-2.616 1.903,-2.616 1.689,0 1.832,1 1.832,2.459 0,1.631 -0.153,2.755 -1.855,2.755 m 2.739,-7.256 1.198,0 0,7.135 -1.198,0 0,-7.135 z m 4.589,4.149 c 0,-0.643 0,-1.305 -0.627,-1.305 -0.675,0 -0.675,0.835 -0.675,1.328 l 0,0.988 c 0,0.501 -0.032,1.291 0.669,1.291 0.636,0 0.633,-0.731 0.633,-1.232 l 0,-1.07 z M 46.878,3.828 C 45.121,3.828 45,2.75 45,1.23 c 0,-1.392 0.212,-2.616 1.905,-2.616 1.686,0 1.824,1 1.824,2.459 0,1.631 -0.147,2.755 -1.851,2.755 m 4.416,-4.412 c -0.595,0 -0.653,0.727 -0.653,1.914 0,0.757 0.093,1.571 0.653,1.571 0.652,0 0.675,-1.073 0.675,-1.612 0,-0.875 -0.042,-1.873 -0.675,-1.873 m 1.879,0.115 0,4.397 c 0,1.367 -0.736,1.705 -1.953,1.705 -1.085,0 -1.685,-0.338 -1.685,-1.483 l 1.276,0 c 0,0.362 0.079,0.77 0.512,0.77 0.489,0 0.623,-0.352 0.623,-1.058 l 0,-0.774 c -0.307,0.405 -0.634,0.544 -1.112,0.544 -1.271,0 -1.405,-1.263 -1.405,-2.296 0,-1.308 0.035,-2.722 1.382,-2.722 0.512,0 0.923,0.218 1.176,0.687 l 0,-0.563 1.205,0 c -0.008,0.194 -0.019,0.533 -0.019,0.793 m 1.056,-0.793 1.193,0 0,4.968 -1.193,0 0,-4.968 z m 0,-2.09 1.193,0 0,1.059 -1.193,0 0,-1.059 z M 58.671,0 c -0.042,-0.344 -0.167,-0.584 -0.536,-0.584 -0.392,0 -0.539,0.251 -0.602,0.645 -0.024,0.201 -0.039,0.378 -0.039,0.615 l 1.213,0 C 58.707,0.452 58.718,0.231 58.671,0 m -1.177,1.358 0,0.439 c 0,0.854 0.154,1.226 0.621,1.226 0.514,0 0.603,-0.503 0.603,-0.961 l 1.134,0 c -0.043,1.227 -0.552,1.766 -1.737,1.766 -1.696,0 -1.805,-1.168 -1.805,-2.56 0,-1.365 0.199,-2.654 1.872,-2.654 1.71,0 1.71,1.296 1.71,2.744 l -2.398,0 z m 8.989,2.349 -1.782,-3.88 1.701,-3.255 1.464,0 -1.875,3.179 1.978,3.956 -1.486,0 z m -3.115,-7.135 1.291,0 0,7.135 -1.291,0 0,-7.135 z m 7.196,4.741 -0.212,0 c -0.637,0 -0.947,0.254 -0.947,0.908 0,0.361 0.087,0.785 0.507,0.785 0.567,0 0.652,-0.714 0.652,-1.134 l 0,-0.559 z m 0.084,2.394 -0.022,-0.559 c -0.274,0.44 -0.676,0.655 -1.221,0.655 -0.889,0 -1.199,-0.679 -1.199,-1.487 0,-1.618 1.065,-1.737 2.358,-1.737 l 0,-0.261 c 0,-0.38 0.021,-0.947 -0.505,-0.947 -0.411,0 -0.548,0.296 -0.548,0.666 l 0,0.072 -1.181,0 0,-0.081 c 0,-1.134 0.866,-1.414 1.788,-1.414 1.218,0 1.609,0.514 1.609,1.696 l 0,1.74 c 0,0.551 0.012,1.101 0.079,1.657 l -1.158,0 z m 4.342,-3.984 c -0.788,0 -1.036,0.465 -1.036,1.199 l 0,2.785 -1.198,0 0,-4.075 c 0,-0.065 -0.02,-0.841 -0.02,-0.894 l 1.148,0 0.008,0.633 c 0.275,-0.539 0.661,-0.731 1.239,-0.731 l 0.055,0 0,1.098 C 75.117,-0.268 75.055,-0.277 74.99,-0.277 m 0.8,-3.151 1.204,0 0,7.135 -1.204,0 0,-7.135 z m 3.662,7.223 c -0.938,0 -1.653,-0.372 -1.671,-1.409 0,-0.017 -0.008,-0.165 0,-0.268 l 1.196,0 0,0.153 c 0.003,0.389 0.081,0.747 0.534,0.747 0.36,0 0.542,-0.229 0.542,-0.587 0,-0.484 -0.265,-0.582 -0.97,-0.955 -0.879,-0.454 -1.256,-0.663 -1.256,-1.448 0,-1.009 0.788,-1.414 1.718,-1.414 1.179,0 1.652,0.473 1.652,1.542 l -1.183,0 c 0,-0.095 0.015,-0.169 0,-0.259 -0.024,-0.297 -0.122,-0.576 -0.511,-0.576 -0.307,0 -0.483,0.23 -0.483,0.526 0,0.446 0.355,0.567 1.033,0.93 0.732,0.385 1.191,0.622 1.191,1.487 0,1.117 -0.804,1.531 -1.792,1.531 m 4.793,-4.072 c -0.783,0 -1.032,0.465 -1.032,1.199 l 0,2.785 -1.204,0 0,-4.075 c 0,-0.065 -0.02,-0.841 -0.02,-0.894 l 1.155,0 0.011,0.633 c 0.267,-0.539 0.656,-0.731 1.237,-0.731 l 0.054,0 0,1.098 c -0.065,-0.006 -0.132,-0.015 -0.201,-0.015 m 3.237,3.984 -0.01,-0.536 c -0.269,0.423 -0.668,0.632 -1.16,0.632 -0.885,0 -1.269,-0.464 -1.269,-1.399 l 0,-3.666 1.207,0 0,3.324 c 0,0.42 0.007,0.956 0.554,0.956 0.527,0 0.664,-0.626 0.664,-1.06 l 0,-3.22 1.196,0 0,4.152 c 0,0.313 0.018,0.533 0.037,0.817 l -1.219,0 z m 4.683,0 0,-3.321 c 0,-0.559 -0.035,-0.97 -0.561,-0.97 -0.48,0 -0.663,0.584 -0.663,1.089 l 0,3.202 -1.203,0 0,-7.135 1.203,0 0,2.677 c 0.286,-0.408 0.674,-0.635 1.199,-0.635 0.923,0 1.227,0.526 1.227,1.52 l 0,3.573 -1.202,0 z M 96.616,0 c -0.05,-0.344 -0.17,-0.584 -0.539,-0.584 -0.389,0 -0.545,0.251 -0.601,0.645 -0.031,0.201 -0.036,0.378 -0.036,0.615 l 1.204,0 C 96.644,0.452 96.656,0.231 96.616,0 m -1.176,1.358 0,0.439 c 0,0.854 0.151,1.226 0.614,1.226 0.512,0 0.602,-0.503 0.602,-0.961 l 1.14,0 c -0.05,1.227 -0.562,1.766 -1.742,1.766 -1.703,0 -1.809,-1.168 -1.809,-2.56 0,-1.365 0.206,-2.654 1.872,-2.654 1.709,0 1.709,1.296 1.709,2.744 l -2.386,0 z"
               style="fill:#ffffff;fill-opacity:1;fill-rule:nonzero;stroke:none"
               id="path106"
               sodipodi:nodetypes="csscccccsccssscccssscccssscccccccccccccccccsscccccsccsssccccscccccccsccccccccccccccccsccccsscccccsccssscccssccssscccccsccccccscccccscccccccsccccsccscccssscccccccsccscccsssccssscccsccsccssscccccccccccccccsscccccsccsssccccccccccccccccssccccssccsccccsccccccccccccccccccccccscccsscssccssssscccccccccccccccsccccsccccccccsccccccsccccsscccccsccssscc" />
          </g>
        </g>
        <g
           id="g108"
           transform="matrix(1.000885,0,0,-1,0,538.5827)"
           style="fill:#ffffff">
          <g
             id="g110"
             transform="translate(615.4742,475.5399)"
             style="fill:#ffffff" />
        </g>
        <g
           id="g114"
           transform="matrix(1.000885,0,0,-1,0,538.5827)"
           style="fill:#ffffff">
          <g
             id="g116"
             transform="translate(580.4922,475.5399)"
             style="fill:#ffffff" />
        </g>
        <g
           id="g120"
           transform="matrix(1.000885,0,0,-1,0,538.5827)"
           style="fill:#ffffff">
          <g
             id="g122"
             transform="translate(595.2292,481.1649)"
             style="fill:#ffffff" />
        </g>
        <g
           id="g126"
           transform="matrix(1.000885,0,0,-1,0,538.5827)"
           style="fill:#ffffff">
          <g
             id="g128"
             transform="translate(494.6913,481.2119)"
             style="fill:#ffffff" />
        </g>
        <g
           id="g132"
           transform="matrix(1.000885,0,0,-1,0,538.5827)"
           style="fill:#ffffff">
          <g
             id="g134"
             transform="translate(480.9492,492.4029)"
             style="fill:#ffffff" />
        </g>
        <g
           id="g144"
           transform="matrix(1.000885,0,0,-1,0,538.5827)"
           style="fill:#ffffff" />
      </g>
    </g>
  </g>
</svg>
