<?xml version="1.0" encoding="UTF-8"?>
<svg id="logo-sml-000000" xmlns="http://www.w3.org/2000/svg" version="1.1" viewBox="0 0 184 72">
  <defs>
    <style>
      .cls-1 {
      fill: #fff;
      }
      .cls-1,
      .cls-2 {
      stroke-width: 0px;
      }
    </style>
  </defs>
  <g>
    <path class="cls-1"
      d="M119,59.4c.6-1.6,1.8-2.6,3.1-2.6h1.1c1.4,0,2.6,1.1,3,2.6l-.8,1.1h-5.6l-.8-1.1h0ZM115.1,62.3c0,4.7,3,8.3,6.9,8.3h1.2c3.3,0,6-2.4,6.4-5.5h-3.2c-.3,1.5-1.5,2.7-3.2,2.7h-1.2c-2,0-3.1-1.9-3.4-3.8l.8-1h10.2v-1.2c0-4.3-2.7-7.7-6.5-7.7h-1.3c-3.4,0-6.8,3.2-6.8,8.3M101.5,48.1h-3.3v22.3h3.3v-8.6c0-2.5,1.4-4.7,3.4-4.7h1.2c1.7,0,2.7,1.6,2.7,3.6v9.7h3.3v-10.2c0-3.5-2.3-6.1-5-6.1h-1.3c-1.3,0-2.4.6-3.2,1.4l-1.1-.3v-7.1h0ZM83.7,54.3h-3.3v10.2c0,3.5,2.3,6.1,5,6.1h1.3c1.3,0,2.4-.6,3.2-1.4l1.1.3v.9h3.3v-16h-3.3v8.6c0,2.5-1.4,4.7-3.4,4.7h-1.2c-1.7,0-2.7-1.6-2.7-3.6v-9.7h0ZM50,48.1h-3.3v18.6c0,2.3,1.1,3.7,3.7,3.7h2.5v-2.8h-1.6c-.9,0-1.2-.5-1.2-1.3v-18.1h0ZM39.5,54.3h-3.4v16h3.4v-9c0-1.8,1.1-4.2,3.1-4.2h2.2v-2.8h-1.9c-1.2,0-1.9.4-2.5,1.1l-1-.3v-.8h0ZM6.2,37.7l10-15.1v-3.1H0v3.1h11l.5.9L1.5,38.7v3.1h14.1v-3.1H6.8l-.5-1h-.1ZM10.1,61.2l8.7-13.1h-4l-6.4,9.8h-1.4l-2-2.2v-7.6H1.4v22.3h3.6v-7.8l1.1-.6,7.8,8.4h4.6l-8.4-9.2h0ZM22.5,65.8c0-1.8,1.9-2.2,3.1-2.4l2.7-.5.9.6h0c0,2.9-2,4.4-4.2,4.4s-2.5-.7-2.5-2.1M19.1,66c0,3.1,2.3,4.6,5.2,4.6s3-.4,4.1-1.3l.9.3v.8h3.2v-10.3c0-3.5-2.3-6-6-6h-1.2c-3.4,0-6,2.4-6.2,5.4h3.4c.1-1.7,1.2-2.6,2.8-2.6h1.2c1.5,0,2.5,1.2,2.6,2.6l-.8.9-3.6.6c-3.2.5-5.7,1.8-5.7,5.1M27.8,32.6l8.7-13.1h-4l-6.4,9.8h-1.4l-2-2.2v-7.6h-3.6v22.3h3.6v-7.8l1.1-.6,7.8,8.4h4.6l-8.4-9.2h0ZM60.3,41.8h3.5v-22.3h-3.8l-10.5,16.3h-1l-4.7-16.3h-5.7v22.3h3.5v-14.7h.9l4.1,14.7h2.7l9.8-14.8,1.1.4v14.4h0ZM57.9,58.6c0-1.2.9-1.8,2-1.8h1.1c1.1,0,2.1.9,2.2,2h3.2c0-2.8-2.6-4.7-5.4-4.7h-1.3c-2.8,0-5.3,1.9-5.3,4.9s1.4,3.8,4,4.3l3,.6c1.4.3,2,.8,2,2s-1.1,2-2.3,2h-1.1c-1.3,0-2.4-.9-2.6-2.3h-3.3c0,3,2.8,4.9,5.9,4.9h1.3c2.7,0,5.6-1.6,5.6-5.2s-1.7-3.9-4.1-4.3l-3.1-.6c-1.3-.3-1.8-1-1.8-1.9M74.3,55.4l-1-.3v-.8h-3.4v16h3.4v-9c0-1.8,1.1-4.2,3.1-4.2h2.2v-2.8h-1.9c-1.2,0-1.9.4-2.5,1.1" />
    <path class="cls-1"
      d="M182.5,31.9V9.9c0-5.4-4.4-9.9-9.9-9.9h-25.7c-1.8,0-3.7.5-5.3,1.4l-5.1,3.1c-1.8-2.7-4.8-4.5-8.3-4.5h-29.9c-3.2,0-6.2,1.7-8,4.3l-14.9,22c-2,3-2.2,6.9-.5,10.1s5.1,5.2,8.7,5.2h24.5c3.3,0,6.3-1.6,8.2-4.3h0c1.8,2.6,4.8,4.3,8.3,4.3h3.6c3.5,0,6.5-1.8,8.3-4.5l5.1,3.1c1.6,1,3.3,1.4,5.1,1.4h25.9c5.4,0,9.9-4.4,9.9-9.9" />
  </g>
  <path class="cls-2"
    d="M172.4,31.9h-3.5V9.9h3.5v22ZM163.9,31.9h-3.5V9.9h3.5v22ZM155.3,31.9h-3.5V9.9h3.5v22ZM146.6,31.9l-15.1-9.2v-3.7l15.1-9.2v4l-11.3,6.7v.7l11.3,6.7v4ZM128.4,31.9h-3.5V9.9h3.5v22ZM122,9.9l-14.9,22h-4.1l14.9-22h4.1ZM112.3,9.9l-14.9,22h-4.1l14.9-22h4.1ZM102.8,9.9l-14.9,22h-4.1l14.9-22h4.1Z" />
</svg>