<svg id="Ebene_1" data-name="Ebene 1" xmlns="http://www.w3.org/2000/svg"
    viewBox="0 0 2623.07 510.22">
    <defs>
        <style>.cls-1{fill:#fff;}</style>
    </defs>
    <title>Riemschneider Logo</title>
    <path class="cls-1"
        d="M967,1060.79h-24V911.17l-2.58-.61-48.91,149.66a10.34,10.34,0,0,1-1.89.76c-23.84,2.15-23.79,2.13-31-20.21q-19.44-60-39-120c-.9-2.77-1.87-5.51-5.1-7.93v148H789.79V878.4h40.74c15.43,47.45,31.1,95.65,47.78,146.93,10.42-32.16,19.85-61.25,29.3-90.34,5.36-16.52,11-32.94,16-49.59,1.74-5.9,4.41-8.07,10.51-7.82,10.74.44,21.5.12,32.94.12Z"
        transform="translate(-193.96 -876.37)" />
    <path class="cls-1"
        d="M1680.29,877.71c11.13,0,21.63-.79,31.9.42,3.63.43,8,5.11,9.8,8.9,20.79,43.09,41.15,86.38,61.65,129.61a17.37,17.37,0,0,0,6.06,7.49V878.45h24.93v182.91c-10.9,0-22.36.59-33.67-.42-2.79-.25-5.88-5.35-7.54-8.83-20-41.75-39.74-83.62-59.56-125.46-2.08-4.38-4.22-8.73-8.49-12.81v146.9h-25.08Z"
        transform="translate(-193.96 -876.37)" />
    <path class="cls-1"
        d="M2669.62,877.72c34.21,0,67.43-.28,100.65.15,12.39.16,33.94,23.42,34.66,36.36.36,6.55.09,13.15.09,19.72,0,27.22-13.29,44.47-40.34,51.58,17.49,24.7,34.82,49.19,52.34,74-22.92,5.61-28.63,3.59-41-14.12-12.15-17.43-24.57-34.69-36.22-52.46-4.37-6.66-9.32-9.42-17.15-8.93-8.79.56-17.64.13-27.56.13v76.52h-25.48Zm25.78,81.21c19.74,0,38.65-.7,57.49.27,11,.56,21.11-2.65,23.83-12.07,3.05-10.52,2.28-22.88.12-33.84-.88-4.5-9.59-10.28-15-10.58-21.88-1.21-43.86-.5-66.43-.5Z"
        transform="translate(-193.96 -876.37)" />
    <path class="cls-1"
        d="M227.25,984.1v76.52H202.83V878.33c2.76-.18,6.07-.59,9.38-.6q42.9-.08,85.81,0c16.32,0,39,20.89,39.86,37.1.54,10.41.56,20.88.06,31.29-.74,15.52-20.55,34.77-40.56,39.12,17.69,25,35.11,49.65,53.86,76.17-10.59,0-19,.59-27.24-.31-3.05-.33-6.42-3.67-8.44-6.49-14.34-20.13-28.73-40.25-42.31-60.89-4.91-7.45-10.45-10.36-19.09-9.74C245.78,984.57,237.32,984.1,227.25,984.1Zm.68-25.2c23,0,44.86.17,66.76-.19,3-.05,6.29-2.39,9-4.29,12.81-8.9,7.34-22.39,7.75-34.09.36-10.26-7.05-17.21-16.25-17.7-22.21-1.16-44.52-.37-67.27-.37Z"
        transform="translate(-193.96 -876.37)" />
    <path class="cls-1"
        d="M2253.31,1061.45V877.87c32.53,0,64.52-.23,96.51.31,3.95.06,8.41,3.65,11.65,6.67,27.41,25.58,27.34,25.66,27.35,63.65,0,22,.73,44.12-.41,66.1-.37,7.31-4.41,15.13-8.69,21.41-14.3,21-34.17,28.46-59.81,25.89C2298.14,1059.72,2276,1061.45,2253.31,1061.45Zm26-159.28v134.4c20.41,0,39.69.31,59-.12,10-.23,24.41-15.57,24.52-25.5q.42-41.12.38-82.23c0-10.34-14.58-26.16-25-26.41C2318.92,901.84,2299.65,902.17,2279.34,902.17Z"
        transform="translate(-193.96 -876.37)" />
    <path class="cls-1"
        d="M1191.73,909.92l-17.4,15.83c-.52-.26-1.85-.49-2.39-1.28-13.81-20-33.17-25.77-56.35-22.47a51.18,51.18,0,0,1-16.2,0c-15.84-2.88-24.22,7.74-32.49,17.82-2.18,2.66-2.34,8.28-1.33,12,2.48,9.09,18.81,20.17,28.33,20.19,17.4,0,34.85-.71,52.18.38,6.63.42,13.37,4.38,19.38,7.9,4.19,2.46,6.87,7.38,10.84,10.37,13,9.81,16.69,22.65,16.18,38.57-.42,13-5.18,22-13.52,31.68-13.83,16-29.33,23.32-50.59,20.9-14.13-1.6-28.6-.77-42.88-.14-10.49.46-18.55-2.86-25.74-10.43-6.61-7-14.19-13-22.17-20.25l19-16.42c.6-1.37,1.19-2.75,1.79-4.13,5.3,6.5,9.92,13.77,16.14,19.23a29,29,0,0,0,16.07,6.72c13.86.94,27.82.31,41.74.31,21.74,0,34.21-12.77,33.41-34.22-.42-11.17-14.27-25.11-25.56-25.23-17.78-.2-35.64.86-53.33-.48-7.71-.58-15.58-5-22.43-9.15-5.45-3.34-9.5-9-14.12-13.67-16.6-16.79-15.38-36.19,0-54.18,14.91-17.45,31.76-25,54.62-22.32,14.11,1.67,28.66-.58,42.85.69a40.88,40.88,0,0,1,20.25,8.33C1176.45,893,1183.37,901.45,1191.73,909.92Z"
        transform="translate(-193.96 -876.37)" />
    <path class="cls-1"
        d="M2018.17,902.17h-92v54.44h92v25h-91.94v54.78h92.31v24.25H1900.71V878.46h117.46Z"
        transform="translate(-193.96 -876.37)" />
    <path class="cls-1"
        d="M703,981.75H611.19v54.74h92.06v24H585.46V878.3H703.24v23.08H611.32V956.5H703Z"
        transform="translate(-193.96 -876.37)" />
    <path class="cls-1"
        d="M2469.73,1060.76V878.38H2587.6V902h-92.24v54.65h92.41v24.51h-92v55.15h91.86v24.45Z"
        transform="translate(-193.96 -876.37)" />
    <path class="cls-1"
        d="M1490.29,956.55h84.31V878.41h25.9v182.21H1576V982.4h-84.79v78.13h-25.68v-182h24.73Z"
        transform="translate(-193.96 -876.37)" />
    <path class="cls-1"
        d="M1378.76,1012.29l16.13,15.68c-9.37,10.27-17.75,20.39-27.24,29.31-3.16,3-9.17,3.84-13.92,4-15.84.48-31.77,1-47.53-.21-7-.55-14.41-4.27-20.37-8.38-21.19-14.66-28.84-34.76-26.17-60.83,2.27-22.19-.31-44.85.9-67.22.42-7.64,4.69-15.8,9.18-22.35,13.84-20.19,33.11-29.11,57.78-24.58a3.18,3.18,0,0,0,1.15,0c29.79-5.8,50.34,8,66.38,32.64L1377.7,925.4c-.55-.44-2.77-1.46-3.86-3.2-16-25.64-41.5-20.64-65.37-19.72-8.91.35-22.67,17.22-22.72,26.29q-.21,40.61,0,81.22c.07,11,15.1,26.3,26.11,26.58,11.6.31,23.26.71,34.78-.21,4.84-.39,10-3.31,14-6.46C1366.9,1024.87,1372.27,1018.7,1378.76,1012.29Z"
        transform="translate(-193.96 -876.37)" />
    <path class="cls-1"
        d="M2705.76,1366.28l11.73-12.93c13.53,21,34.25,12.62,52.66,13.93,9,.64,13.62-4.43,13.84-13.28a187.58,187.58,0,0,0-1-26.31c-13.39,19.3-32.7,13.45-50.17,13.6-13.93.12-28.84-15.42-29.06-29.31-.27-17.76-.24-35.54,0-53.3.19-15.23,15.19-30.11,30.32-30.53,1.93-.06,3.87,0,5.8,0,16.78-.68,33.84-2.18,45,17.25.67-17.46,9.93-19.68,20.19-17.08,0,43.26.19,85.88-.1,128.5-.09,14.51-15.71,29-30.26,29.16-9.66.08-19.43-.94-28.94.22C2728.52,1388.26,2715.54,1382.7,2705.76,1366.28Zm18.82-81.1c0,8.09-1.12,16.4.43,24.18.91,4.57,5.35,10.82,9.43,12,18.32,5.21,38-1,46.07-18.27,4.72-10.09,4.79-26,0-36-7.84-16.43-24.1-23.64-43.45-19.92-7.88,1.51-12.48,5.47-12.5,13.81Q2724.55,1273.05,2724.58,1285.18Z"
        transform="translate(-193.96 -876.37)" />
    <path class="cls-1"
        d="M324.65,1212.94l-12.87,13.63c-1.81-.62-2.82-.65-3.15-1.13-18.76-28-47.47-16.85-72.81-18.07-7.19-.35-18.83,15-18.25,21.43.67,7.33,13.65,19.57,21.7,19.73,15.45.29,30.91,0,46.36.14,16.68.18,37.57,23.62,40.09,40,3.77,24.43-12,36.72-27,49.79-3.27,2.84-9.4,3.17-14.25,3.3-14.66.41-29.4-.58-44,.37-12.71.83-22.39-2.9-30.46-12.74-4.11-5-9.62-8.88-16-14.67l17.22-13.5c-.86-.24.15-.28.43.16,18.46,28.31,47.19,18.21,72.63,18.69,10.3.2,20-16.85,18.95-29.13-.83-10-13-20.88-23.7-21-15.07-.1-30.14.23-45.2-.09-21.09-.45-44.35-32.81-38.26-52.84,4-13.18,29.19-31.76,43.23-31.85,10-.06,20.08,0,30.13,0C301.93,1185.16,303.32,1185.86,324.65,1212.94Z"
        transform="translate(-193.96 -876.37)" />
    <path class="cls-1"
        d="M472.26,1038.29H505v22.09H412.44v-22h33.5V901.11H412.27V878.69H505v21.85H472.26Z"
        transform="translate(-193.96 -876.37)" />
    <path class="cls-1"
        d="M2147.07,1038.25h33.7v22.34h-92.94v-21.76h33.69V901.11h-33.86V878.49h93.1v22h-33.69v137.71Z"
        transform="translate(-193.96 -876.37)" />
    <path class="cls-1"
        d="M2056.5,1340.76h-17c-1.41-4.57-2.87-9.27-4.52-14.61-1.4.77-3,1.14-3.74,2.14-12.8,17.71-31.35,14.13-48.71,12.22-11.31-1.24-23.39-18.06-23.43-29.58-.07-27,0-54,0-81.91h20.52c0,24.48.19,48.71-.1,72.94-.1,8.55,0,17.63,9.47,20.06,9.32,2.39,19,3.58,28.18-4.3,12.43-10.68,18.06-22.44,16.52-39.11-1.51-16.36-.33-33-.33-50h20.91c0,18.81-.3,37.59.08,56.36C2054.68,1303.36,2055.73,1321.72,2056.5,1340.76Z"
        transform="translate(-193.96 -876.37)" />
    <path class="cls-1"
        d="M2350.93,1228.61c1.55,4.93,3,9.59,5.25,16.75,11.87-19.6,29.57-18,46.93-17.15,10.43.5,26.82,15.6,28.11,25.73a66.42,66.42,0,0,1,.15,8.11c0,25.85,0,51.7,0,78.49h-20.92v-22.22c0-17.39.62-34.82-.32-52.16-.34-6.19-3.46-16.53-7.06-17.36-8.65-2-20.12-2.42-27.22,1.88-12.94,7.82-21.21,19.76-19.17,37.53,2,17.1.43,34.6.43,52.59h-20.93c0-19,.31-37.87-.08-56.7-.38-18.36-1.48-36.7-2.28-55.49Z"
        transform="translate(-193.96 -876.37)" />
    <path class="cls-1"
        d="M1629.13,1247.87l-17.61-1.39V1228.4h16.39v-43.83h21.58v43.35h37v18.71h-36.24c0,23-.55,44.55.57,66,.17,3.36,7.51,8.09,12.2,9.07,7.32,1.53,15.19.41,23.45.41v19.3c-18-1.36-37.39,6.62-50.16-12.46-3.41-5.09-6.66-11.41-6.89-17.28C1628.63,1290.84,1629.13,1270,1629.13,1247.87Z"
        transform="translate(-193.96 -876.37)" />
    <path class="cls-1"
        d="M1302.4,1228.25h35.84v18.55H1301.4v94h-19.71v-92.91l-18.56-1.23v-17.95l15.82-1.05c4.77-51.29,24.58-44.78,59.17-43.24v18.25c-5,0-10.22,0-15.46,0C1302.55,1202.64,1299.44,1206.29,1302.4,1228.25Z"
        transform="translate(-193.96 -876.37)" />
    <path class="cls-1"
        d="M672.63,1341.42c-10.81,0-20.83.54-30.78-.13-12.9-.87-26.28-15.92-26.43-29.38-.23-21.18-.06-42.36-.06-64.1l-17.49-1.38v-17.7l17.32-1.11v-43.29h20.4v43.32h37.07v19h-36c0,22.79-.54,44.64.6,66.39.17,3.23,7.93,7.64,12.78,8.67,7,1.49,14.55.38,22.61.38Z"
        transform="translate(-193.96 -876.37)" />
    <path class="cls-1" d="M989.22,1340.1H970.06v-92.33l-24.21-1.28V1229h43.37Z"
        transform="translate(-193.96 -876.37)" />
    <path class="cls-1" d="M989.58,1186.41v21.24H967.93v-21.24Z"
        transform="translate(-193.96 -876.37)" />
</svg>